<svg width="32" height="28" viewBox="0 0 32 28" fill="none" xmlns="http://www.w3.org/2000/svg">
    <path d="M17.782 3.047c-2.995-.055-5.889 1.047-8.047 3.063-2.157 2.016-3.402 4.782-3.458 7.688l-2.512-.63C5.46 24.863 16.512 24.95 16.512 24.95c6.236.117 12.228-4.683 12.347-10.735.028-1.44-.236-2.87-.778-4.21a10.927 10.927 0 0 0-2.378-3.6 11.304 11.304 0 0 0-3.616-2.443 11.583 11.583 0 0 0-4.305-.914zm9.507 11.138c-.099 5.026-5.121 9.344-10.764 9.24a13.087 13.087 0 0 1-5.033-1.336c-2.818-1.405-4.717-3.699-5.666-6.83l1.983.497.038-1.93c.057-2.496 1.132-4.869 2.988-6.598a9.886 9.886 0 0 1 6.916-2.626 9.864 9.864 0 0 1 6.81 2.879 9.29 9.29 0 0 1 2.728 6.704z" fill="#101828"/>
    <path d="M27.965 4.29A14.53 14.53 0 0 0 21.594.556a14.866 14.866 0 0 0-7.44-.16 14.578 14.578 0 0 0-6.535 3.458 13.958 13.958 0 0 0-3.894 6.157L0 9.076l.654 4.516c2.05 14.154 15.68 14.406 15.797 14.406a15.551 15.551 0 0 0 3.077-.253c6.983-1.28 12.343-7.072 12.469-13.47.041-1.84-.294-3.67-.985-5.385a13.878 13.878 0 0 0-3.047-4.6zm2.463 9.953c-.113 5.797-5.081 10.884-11.191 12.004-.908.167-1.832.243-2.756.226-.107 0-12.411-.246-14.272-13.092l-.327-2.258 3.009.753c.553-3.1 2.292-5.884 4.869-7.794a13.145 13.145 0 0 1 9.03-2.505c3.227.3 6.219 1.77 8.377 4.119 2.158 2.348 3.323 5.4 3.261 8.547z" fill="#101828"/>
    <path d="M27.965 4.29A14.53 14.53 0 0 0 21.594.556a14.866 14.866 0 0 0-7.44-.16 14.578 14.578 0 0 0-6.535 3.458 13.958 13.958 0 0 0-3.894 6.157L0 9.076l.654 4.516c2.05 14.154 15.68 14.406 15.797 14.406a15.551 15.551 0 0 0 3.077-.253c6.983-1.28 12.343-7.072 12.469-13.47.041-1.84-.294-3.67-.985-5.385a13.878 13.878 0 0 0-3.047-4.6zm2.463 9.953c-.113 5.797-5.081 10.884-11.191 12.004-.908.167-1.832.243-2.756.226-.107 0-12.411-.246-14.272-13.092l-.327-2.258 3.009.753c.553-3.1 2.292-5.884 4.869-7.794a13.145 13.145 0 0 1 9.03-2.505c3.227.3 6.219 1.77 8.377 4.119 2.158 2.348 3.323 5.4 3.261 8.547z" fill="#101828"/>
    <path fill-rule="evenodd" clip-rule="evenodd" d="M3.765 13.169c1.694 11.694 12.747 11.78 12.747 11.78 6.236.117 12.228-4.683 12.347-10.735.056-2.907-1.079-5.716-3.156-7.81-2.078-2.095-4.927-3.302-7.922-3.357-2.994-.056-5.89 1.046-8.047 3.062-2.158 2.017-3.402 4.783-3.459 7.69l-2.51-.63zm15.595.984a.348.348 0 0 1-.151.221.367.367 0 0 1-.268.054l-.953-.163a.362.362 0 0 1-.232-.14.343.343 0 0 1-.065-.259l.81-4.363a.348.348 0 0 1 .15-.221.368.368 0 0 1 .269-.054l.953.164a.362.362 0 0 1 .232.14.342.342 0 0 1 .065.258l-.81 4.363zm4.088.949a.35.35 0 0 0 .152-.221l.808-4.363a.343.343 0 0 0-.064-.258.362.362 0 0 0-.233-.14l-.953-.164a.367.367 0 0 0-.268.054.347.347 0 0 0-.15.221l-.81 4.363a.342.342 0 0 0 .065.258.362.362 0 0 0 .232.14l.954.164a.37.37 0 0 0 .267-.054z" fill="#101828"/>
</svg>
